2.5Hzlow3min_grf.mot
version=1
nRows=27
nColumns 19
inDegrees=yes
endheader
time	1_ground_force_vx	1_ground_force_vy	1_ground_force_vz	1_ground_force_px	1_ground_force_py	1_ground_force_pz	1_ground_torque_x	1_ground_torque_y	1_ground_torque_z	2_ground_force_vx	2_ground_force_vy	2_ground_force_vz	2_ground_force_px	2_ground_force_py	2_ground_force_pz	2_ground_torque_x	2_ground_torque_y	2_ground_torque_z
            1.253500	           -0.502988	           -0.182526	            0.504894	           -0.233013	            0.005581	           -0.255695	            0.053593	            0.018364	           -0.040348	           -9.003693	            5.041496	           23.063922	           -0.232311	            0.006130	           -0.833667	           -1.063929	           -6.965288	            1.144352
            1.254000	           -0.411790	           -0.001456	            0.322015	           -0.233013	            0.005581	           -0.255695	            0.023700	            0.110908	           -0.054772	           -9.144928	            5.225304	           23.017711	           -0.232311	            0.006130	           -0.833667	           -1.064016	           -6.927880	            1.257588
            1.254500	           -0.411937	            0.179006	            0.276932	           -0.233013	            0.005581	           -0.255695	            0.006911	            0.092175	            0.001577	           -8.819555	            5.962412	           23.207912	           -0.232311	            0.006130	           -0.833667	           -1.045008	           -6.993847	            1.219644
            1.255000	           -0.594772	            0.358254	            0.507440	           -0.233013	            0.005581	           -0.255695	            0.015686	            0.046045	           -0.044064	           -8.771519	            5.595456	           22.878081	           -0.232311	            0.006130	           -0.833667	           -1.082749	           -6.946719	            1.219828
            1.255500	           -0.320053	           -0.902570	            0.272067	           -0.233013	            0.005581	           -0.255695	            0.064012	           -0.092721	            0.023389	           -9.002405	            4.673534	           22.968752	           -0.232311	            0.006130	           -0.833667	           -1.101645	           -6.918362	            1.201087
            1.256000	           -0.732218	           -0.723170	            0.457288	           -0.233013	            0.005581	           -0.255695	            0.018354	           -0.129645	           -0.050650	           -8.862581	            4.858692	           22.828564	           -0.232311	            0.006130	           -0.833667	           -1.063921	           -6.965355	            1.163202
            1.256500	           -0.457519	           -0.001661	            0.367985	           -0.233013	            0.005581	           -0.255695	            0.021722	           -0.046169	           -0.076193	           -9.050563	            5.041494	           23.017014	           -0.232311	            0.006130	           -0.833667	           -1.139088	           -6.956241	            1.182118
            1.257000	           -0.364905	           -0.724083	            0.685657	           -0.233013	            0.005581	           -0.255695	           -0.103811	            0.027243	            0.059955	           -8.954890	            4.489555	           22.968075	           -0.232311	            0.006130	           -0.833667	           -0.988659	           -7.002761	            1.125335
            1.257500	           -0.502940	            0.177809	            0.552295	           -0.233013	            0.005581	           -0.255695	           -0.004972	            0.101625	           -0.058657	           -9.005748	            5.594443	           22.925109	           -0.232311	            0.006130	           -0.833667	           -1.120260	           -6.965693	            1.200927
            1.258000	           -0.641038	            0.178765	            0.323357	           -0.233013	            0.005581	           -0.255695	            0.042532	            0.036537	            0.010275	           -8.956158	            4.857349	           23.110173	           -0.232311	            0.006130	           -0.833667	           -1.120294	           -6.956241	            1.200960
            1.258500	           -0.411724	           -0.361987	            0.320469	           -0.233013	            0.005581	           -0.255695	            0.005235	           -0.046314	           -0.036589	           -8.861314	            4.490897	           22.686466	           -0.232311	            0.006130	           -0.833667	           -1.176693	           -6.946924	            1.182168
            1.259000	           -0.365947	           -0.001447	            0.321902	           -0.233013	            0.005581	           -0.255695	            0.023847	           -0.157290	           -0.016371	           -8.769546	            5.043178	           22.829182	           -0.232311	            0.006130	           -0.833667	           -1.082697	           -6.974674	            1.106626
            1.259500	           -0.320203	            0.539359	            0.324107	           -0.233013	            0.005581	           -0.255695	            0.023449	           -0.110972	           -0.033034	           -8.861314	            4.490897	           22.686466	           -0.232311	            0.006130	           -0.833667	           -1.045152	           -6.965153	            1.125494
            1.260000	           -0.457552	            0.178604	            0.368758	           -0.233013	            0.005581	           -0.255695	            0.003019	           -0.037251	           -0.000923	           -8.674538	            4.675388	           22.780900	           -0.232311	            0.006130	           -0.833667	           -1.139104	           -6.956107	            1.144418
            1.260500	           -0.411937	            0.179006	            0.276932	           -0.233013	            0.005581	           -0.255695	            0.006909	            0.101418	            0.001617	           -9.050584	            5.041661	           22.970086	           -0.232311	            0.006130	           -0.833667	           -1.101696	           -6.908775	            1.163421
            1.261000	           -0.319664	           -0.542825	            0.457037	           -0.233013	            0.005581	           -0.255695	            0.187232	            0.120069	           -0.013614	           -8.956904	            5.042167	           22.923118	           -0.232311	            0.006130	           -0.833667	           -1.157821	           -6.975080	            1.144358
            1.261500	           -0.365507	           -0.542834	            0.457150	           -0.233013	            0.005581	           -0.255695	           -0.019159	            0.045900	            0.022222	           -9.142249	            4.488543	           23.062010	           -0.232311	            0.006130	           -0.833667	           -1.045247	           -6.927678	            1.219880
            1.262000	           -0.411059	            0.357699	            0.644553	           -0.233013	            0.005581	           -0.255695	           -0.046224	           -0.055959	            0.057462	           -8.865137	            5.594448	           23.065833	           -0.232311	            0.006130	           -0.833667	           -1.063972	           -6.946584	            1.200970
            1.262500	           -0.595326	            0.899837	            0.326335	           -0.233013	            0.005581	           -0.255695	            0.060696	           -0.166471	           -0.063904	           -8.861917	            4.674544	           22.827907	           -0.232311	            0.006130	           -0.833667	           -1.101636	           -6.927612	            1.144503
            1.263000	           -0.320365	            0.179221	            0.230849	           -0.233013	            0.005581	           -0.255695	            0.008870	           -0.129545	           -0.014267	           -8.674414	            4.674383	           23.062468	           -0.232311	            0.006130	           -0.833667	           -1.157951	           -6.928152	            1.238778
            1.263500	           -0.365851	            0.719222	            0.416705	           -0.233013	            0.005581	           -0.255695	            0.038038	           -0.046041	           -0.091148	           -8.767470	            4.490064	           23.014923	           -0.232311	            0.006130	           -0.833667	           -1.139198	           -6.927815	            1.163369
            1.264000	           -0.228124	           -0.362345	            0.411726	           -0.233013	            0.005581	           -0.255695	            0.020039	            0.120239	           -0.046891	           -8.862602	            4.858859	           22.781636	           -0.232311	            0.006130	           -0.833667	           -1.063938	           -6.956037	            1.200937
            1.264500	           -0.045064	            0.719481	            0.370053	           -0.233013	            0.005581	           -0.255695	            0.115517	            0.055072	            0.091959	           -8.865904	            5.779433	           22.831850	           -0.232311	            0.006130	           -0.833667	           -1.082655	           -6.975010	            1.200877
            1.265000	            0.459829	           -0.182536	            0.548360	           -0.233013	            0.005581	           -0.255695	            0.089710	           -0.018884	            0.169635	           -8.770793	            5.410806	           23.018208	           -0.232311	            0.006130	           -0.833667	           -1.120226	           -6.975146	            1.200893
            1.265500	            0.597304	            1.980088	            0.694862	           -0.233013	            0.005581	           -0.255695	            0.138729	           -0.222000	            0.136833	           -8.910013	            5.042002	           23.016954	           -0.232311	            0.006130	           -0.833667	           -1.139182	           -6.927950	            1.201070
            1.266000	            0.642950	            3.061691	            0.699386	           -0.233013	            0.005581	           -0.255695	            0.344916	           -0.287287	            0.288343	           -8.906108	            3.937781	           22.825299	           -0.232311	            0.006130	           -0.833667	           -1.007539	           -6.974537	            1.144294
            1.266500	            1.055291	            3.783030	            0.655598	           -0.233013	            0.005581	           -0.255695	            0.365307	           -0.231796	            0.343693	           -8.769546	            5.043178	           22.829182	           -0.232311	            0.006130	           -0.833667	           -1.026445	           -6.927744	            1.257572
